<?xml version="1.0" encoding="UTF-8"?>
<svg version="1.1" xmlns="http://www.w3.org/2000/svg" width="1536" height="1024">
<path d="M0 0 C506.88 0 1013.76 0 1536 0 C1536 337.92 1536 675.84 1536 1024 C1029.12 1024 522.24 1024 0 1024 C0 686.08 0 348.16 0 0 Z " fill="#FDFDFD" transform="translate(0,0)"/>
<path d="M0 0 C1.02351562 0.23976563 2.04703125 0.47953125 3.1015625 0.7265625 C5.76414362 1.40908329 8.37671364 2.18047409 11 3 C11.91394531 3.26296875 12.82789063 3.5259375 13.76953125 3.796875 C36.60047274 10.76535513 55.8423928 24.82135538 73 41 C73.91652344 41.84304688 73.91652344 41.84304688 74.8515625 42.703125 C76 44 76 44 76 46 C76.66 46 77.32 46 78 46 C78.33 46.99 78.66 47.98 79 49 C79.75667969 49.75667969 80.51335937 50.51335937 81.29296875 51.29296875 C92.27526643 62.27526643 105.54548443 85.64285788 106.125 101.3984375 C106.063125 102.68621094 106.063125 102.68621094 106 104 C106.66 104 107.32 104 108 104 C110.94103646 115.97421986 111.33337325 127.85961639 111.375 140.125 C111.38623901 141.26624329 111.38623901 141.26624329 111.39770508 142.43054199 C111.50584025 155.84579123 110.51768672 168.60245347 105 181 C104.46785342 183.22171196 103.96909998 185.45162674 103.5 187.6875 C98.598484 207.88885854 84.15442996 226.24325387 70 241 C72.37907971 244.68857317 74.27375396 247.60455612 78 250 C81.36638887 248.54974765 83.48039225 246.70513547 86 244.0625 C88.5251518 241.42391364 91.02233271 239.12025863 94 237 C97.01844291 238.33980234 98.97168756 239.77285992 101.1875 242.2109375 C101.79408447 242.86908447 102.40066895 243.52723145 103.02563477 244.20532227 C104.00294556 245.27931274 104.00294556 245.27931274 105 246.375 C112.16757339 254.13433739 119.55911216 261.63371728 127.08398438 269.04638672 C131.3397912 273.25839892 135.40452693 277.53933188 139.30444336 282.08178711 C142.21515549 285.37472667 145.36142262 288.42613555 148.5 291.5 C152.26886175 295.19115326 155.95356303 298.88942969 159.390625 302.89453125 C164.16340673 308.43187177 169.44513381 313.45703942 174.6796875 318.55273438 C175.83597656 319.69258789 175.83597656 319.69258789 177.015625 320.85546875 C178.05638184 321.87096802 178.05638184 321.87096802 179.11816406 322.90698242 C182.3089985 326.45589571 184.42683609 329.59082599 184.375 334.4375 C184.38273437 335.15808594 184.39046875 335.87867188 184.3984375 336.62109375 C182.35520921 348.82036856 168.2014329 359.47544664 158.79296875 366.33984375 C153.46367139 369.96046386 148.71185967 372.95555453 142.09765625 372.57421875 C136.37548904 371.00781543 132.64253231 368.01096576 128.5625 363.8125 C127.67691406 362.91144531 126.79132813 362.01039063 125.87890625 361.08203125 C123.73246356 358.82463029 121.68619391 356.49580041 119.65234375 354.13671875 C115.96105838 349.88738397 112.01668739 345.93973936 108 342 C104.09382094 338.16865196 100.24586142 334.34739394 96.6875 330.1875 C92.08354411 324.84231765 87.01979735 319.94914337 82 315 C76.33517674 309.41490951 70.73815409 303.8336017 65.56445312 297.78271484 C62.62970309 294.43852871 59.39713332 291.39168907 56.1875 288.31445312 C53.23610125 285.4277113 50.94613873 282.6456777 49 279 C50.32 277.35 51.64 275.7 53 274 C49.7 271.03 46.4 268.06 43 265 C41.74445313 265.60328125 40.48890625 266.2065625 39.1953125 266.828125 C7.33976854 282.076121 -26.82831065 290.23457597 -62 281 C-63.17046875 280.74476563 -64.3409375 280.48953125 -65.546875 280.2265625 C-102.43164674 271.5990086 -135.14690674 247.33797676 -155.27734375 215.51171875 C-170.13983304 191.25857966 -177.44837972 164.83026223 -177.375 136.4375 C-177.37445618 135.64452515 -177.37391235 134.85155029 -177.37335205 134.0345459 C-177.3344035 121.66884824 -176.68534445 109.89182685 -173 98 C-172.78569336 97.30648437 -172.57138672 96.61296875 -172.35058594 95.8984375 C-160.17345777 58.03767219 -133.87759955 29.31755772 -99 11 C-69.09580577 -4.04154136 -32.52464938 -7.69020994 0 0 Z " fill="#FDFCFC" transform="translate(480,307)"/>
<path d="M0 0 C1.02351562 0.23976563 2.04703125 0.47953125 3.1015625 0.7265625 C5.76414362 1.40908329 8.37671364 2.18047409 11 3 C11.91394531 3.26296875 12.82789063 3.5259375 13.76953125 3.796875 C36.60047274 10.76535513 55.8423928 24.82135538 73 41 C73.91652344 41.84304688 73.91652344 41.84304688 74.8515625 42.703125 C76 44 76 44 76 46 C76.66 46 77.32 46 78 46 C78.33 46.99 78.66 47.98 79 49 C79.75667969 49.75667969 80.51335937 50.51335937 81.29296875 51.29296875 C92.27526643 62.27526643 105.54548443 85.64285788 106.125 101.3984375 C106.063125 102.68621094 106.063125 102.68621094 106 104 C106.66 104 107.32 104 108 104 C110.94103646 115.97421986 111.33337325 127.85961639 111.375 140.125 C111.38623901 141.26624329 111.38623901 141.26624329 111.39770508 142.43054199 C111.50584025 155.84579123 110.51768672 168.60245347 105 181 C104.46785342 183.22171196 103.96909998 185.45162674 103.5 187.6875 C98.598484 207.88885854 84.15442996 226.24325387 70 241 C72.37907971 244.68857317 74.27375396 247.60455612 78 250 C81.36638887 248.54974765 83.48039225 246.70513547 86 244.0625 C88.5251518 241.42391364 91.02233271 239.12025863 94 237 C97.01844291 238.33980234 98.97168756 239.77285992 101.1875 242.2109375 C101.79408447 242.86908447 102.40066895 243.52723145 103.02563477 244.20532227 C104.00294556 245.27931274 104.00294556 245.27931274 105 246.375 C112.16757339 254.13433739 119.55911216 261.63371728 127.08398438 269.04638672 C131.3397912 273.25839892 135.40452693 277.53933188 139.30444336 282.08178711 C142.21515549 285.37472667 145.36142262 288.42613555 148.5 291.5 C152.26886175 295.19115326 155.95356303 298.88942969 159.390625 302.89453125 C164.16340673 308.43187177 169.44513381 313.45703942 174.6796875 318.55273438 C175.83597656 319.69258789 175.83597656 319.69258789 177.015625 320.85546875 C178.05638184 321.87096802 178.05638184 321.87096802 179.11816406 322.90698242 C182.3089985 326.45589571 184.42683609 329.59082599 184.375 334.4375 C184.38273437 335.15808594 184.39046875 335.87867188 184.3984375 336.62109375 C182.35520921 348.82036856 168.2014329 359.47544664 158.79296875 366.33984375 C153.46367139 369.96046386 148.71185967 372.95555453 142.09765625 372.57421875 C136.37548904 371.00781543 132.64253231 368.01096576 128.5625 363.8125 C127.67691406 362.91144531 126.79132813 362.01039063 125.87890625 361.08203125 C123.73246356 358.82463029 121.68619391 356.49580041 119.65234375 354.13671875 C115.96105838 349.88738397 112.01668739 345.93973936 108 342 C104.09382094 338.16865196 100.24586142 334.34739394 96.6875 330.1875 C92.08354411 324.84231765 87.01979735 319.94914337 82 315 C76.33517674 309.41490951 70.73815409 303.8336017 65.56445312 297.78271484 C62.62970309 294.43852871 59.39713332 291.39168907 56.1875 288.31445312 C53.23610125 285.4277113 50.94613873 282.6456777 49 279 C50.32 277.35 51.64 275.7 53 274 C49.7 271.03 46.4 268.06 43 265 C41.74445313 265.60328125 40.48890625 266.2065625 39.1953125 266.828125 C7.33976854 282.076121 -26.82831065 290.23457597 -62 281 C-63.17046875 280.74476563 -64.3409375 280.48953125 -65.546875 280.2265625 C-102.43164674 271.5990086 -135.14690674 247.33797676 -155.27734375 215.51171875 C-170.13983304 191.25857966 -177.44837972 164.83026223 -177.375 136.4375 C-177.37445618 135.64452515 -177.37391235 134.85155029 -177.37335205 134.0345459 C-177.3344035 121.66884824 -176.68534445 109.89182685 -173 98 C-172.78569336 97.30648437 -172.57138672 96.61296875 -172.35058594 95.8984375 C-160.17345777 58.03767219 -133.87759955 29.31755772 -99 11 C-69.09580577 -4.04154136 -32.52464938 -7.69020994 0 0 Z M-117 57 C-140.01158321 82.35912146 -148.16079145 113.06385634 -147.17041016 146.74169922 C-145.40716246 180.45560149 -128.61876345 210.61869599 -104.375 233.5 C-94.4103589 242.22871663 -83.27766434 249.04142698 -71 254 C-69.90300781 254.45117188 -68.80601562 254.90234375 -67.67578125 255.3671875 C-39.05294458 266.39856583 -8.4935557 263.52397294 19.3125 251.625 C31.38389488 246.24398542 41.21872139 238.76239543 51 230 C52.2065625 228.93845703 52.2065625 228.93845703 53.4375 227.85546875 C68.72284461 213.5800487 78.88199337 193.074254 84 173 C84.3400708 171.79714355 84.6801416 170.59428711 85.03051758 169.35498047 C86.11742253 164.9838669 86.28987696 160.85088991 86.265625 156.36328125 C86.26849518 155.16133369 86.26849518 155.16133369 86.27142334 153.93510437 C86.27277609 152.24848108 86.2691437 150.56184705 86.26074219 148.87524414 C86.25010062 146.33650406 86.26063186 143.79848302 86.2734375 141.25976562 C86.30637542 106.75201105 72.19820513 76.28592434 48.125 51.6875 C31.19515356 34.98458787 8.22625971 24.87104328 -15 21 C-16.9490625 20.6596875 -16.9490625 20.6596875 -18.9375 20.3125 C-55.8900935 16.48981791 -91.66273457 30.02124746 -117 57 Z " fill="#84565D" transform="translate(480,307)"/>
<path d="M0 0 C5.84667643 4.84028131 10.49774513 11.01331711 12.6875 18.3125 C13.62619681 29.35336245 11.24655279 37.38812508 4.6875 46.3125 C-1.33574914 52.27352549 -9.69617378 56.20724087 -18.23046875 56.3671875 C-26.55985223 55.90941971 -33.029725 54.40751242 -39.18359375 48.5234375 C-41.32292451 47.00056433 -41.32292451 47.00056433 -44.09765625 47.85546875 C-47.81089465 49.53838239 -51.27613625 51.50502883 -54.75 53.625 C-56.23853758 54.51607218 -57.72818676 55.40528919 -59.21875 56.29296875 C-60.02441406 56.7729834 -60.83007812 57.25299805 -61.66015625 57.74755859 C-66.65971564 60.69740908 -71.70301871 63.56978056 -76.75 66.4375 C-77.76312256 67.01798096 -78.77624512 67.59846191 -79.82006836 68.1965332 C-80.76503174 68.73238037 -81.70999512 69.26822754 -82.68359375 69.8203125 C-83.52849365 70.30129395 -84.37339355 70.78227539 -85.24389648 71.27783203 C-87.3125 72.3125 -87.3125 72.3125 -89.3125 72.3125 C-89.3125 76.9325 -89.3125 81.5525 -89.3125 86.3125 C-88.05566406 86.70824219 -86.79882812 87.10398437 -85.50390625 87.51171875 C-79.92671448 89.37440305 -74.61192359 91.72197997 -69.25 94.125 C-68.19522461 94.59131836 -67.14044922 95.05763672 -66.05371094 95.53808594 C-60.33596113 98.06629778 -54.62973291 100.61826915 -48.93312073 103.19364929 C-46.02805502 104.50392903 -43.11820363 105.80335395 -40.20755005 107.10116577 C-38.78267261 107.73974456 -37.36001082 108.38329137 -35.93966675 109.03189087 C-33.93902093 109.94505469 -31.93154949 110.8412942 -29.921875 111.734375 C-28.76655273 112.25612305 -27.61123047 112.77787109 -26.42089844 113.31542969 C-23.11535317 114.37573811 -21.56048526 114.42124422 -18.3125 113.3125 C-16.30248072 111.84899028 -16.30248072 111.84899028 -14.5 110 C-6.67844041 102.98657203 -0.09368998 101.32753275 10.4140625 101.8046875 C18.50590361 102.52068411 25.09964665 106.26244969 30.6875 112.0625 C35.75822437 118.58377388 38.40553741 125.58326002 38.00390625 133.875 C36.89912073 142.38594032 33.15096867 150.38772583 26.6484375 156.10546875 C19.52023118 161.20604041 10.56650329 164.75981006 1.6875 163.3125 C-4.87892292 161.62806977 -9.95363055 159.5273711 -14.484375 154.38671875 C-17.39280335 152.67770636 -20.17759625 153.55991268 -23.3125 154.3125 C-26.55933046 155.44671842 -29.68541365 156.81199053 -32.82421875 158.21484375 C-33.71486526 158.61143692 -34.60551178 159.00803009 -35.52314758 159.41664124 C-37.39717486 160.25780076 -39.26874004 161.10446483 -41.13793945 161.95629883 C-43.98871056 163.24489697 -46.85728142 164.48632256 -49.72851562 165.72851562 C-51.55337461 166.55444455 -53.37698837 167.38313145 -55.19921875 168.21484375 C-56.05343918 168.57569565 -56.90765961 168.93654755 -57.7877655 169.30833435 C-62.63013987 171.59257929 -64.76169694 173.41166461 -66.72583008 178.47485352 C-66.98584305 179.32797623 -67.24585602 180.18109894 -67.51374817 181.06007385 C-68.89777082 184.96292412 -71.73238102 186.38341716 -75.1328125 188.3828125 C-79.33911272 190.17689754 -83.8378856 189.8385432 -88.3125 189.3125 C-93.31480198 186.85682448 -96.81101535 183.3154693 -99.3125 178.3125 C-99.46101844 176.37890414 -99.53380833 174.43907903 -99.5625 172.5 C-99.58828125 171.46230469 -99.6140625 170.42460938 -99.640625 169.35546875 C-99.19502066 165.22301896 -97.68368675 162.69415382 -94.77734375 159.765625 C-90.47729879 156.37837731 -88.43825047 155.16179466 -83 155.125 C-81.58267578 155.10373047 -81.58267578 155.10373047 -80.13671875 155.08203125 C-77.3125 155.3125 -77.3125 155.3125 -74.83203125 156.38671875 C-70.38518204 158.0206773 -66.88041586 156.54862138 -62.62133789 154.77783203 C-61.25567084 154.13290785 -59.89376216 153.47998185 -58.53515625 152.8203125 C-57.80558212 152.47370575 -57.076008 152.127099 -56.32432556 151.76998901 C-54.00444836 150.6661951 -51.68963108 149.55224678 -49.375 148.4375 C-47.06295688 147.3320657 -44.7499123 146.22876106 -42.43638611 145.12643433 C-41.00167319 144.44196435 -39.56798076 143.75534957 -38.13551331 143.06619263 C-37.47470261 142.74931488 -36.81389191 142.43243713 -36.13305664 142.10595703 C-35.49949249 141.80054993 -34.86592834 141.49514282 -34.21316528 141.18048096 C-32.29366206 140.30389724 -30.34743787 139.56082464 -28.37670898 138.80810547 C-27.36552002 138.31455566 -26.35433105 137.82100586 -25.3125 137.3125 C-24.2509058 133.72386476 -24.2509058 133.72386476 -24.3125 130.3125 C-25.01834229 130.19874023 -25.72418457 130.08498047 -26.45141602 129.96777344 C-29.57046659 129.25341797 -32.18060643 128.15953858 -35.08984375 126.828125 C-36.22945557 126.31096924 -37.36906738 125.79381348 -38.54321289 125.26098633 C-39.14698761 124.98429108 -39.75076233 124.70759583 -40.37283325 124.42251587 C-43.59504885 122.94627166 -46.82498951 121.48712833 -50.0546875 120.02734375 C-50.72526688 119.7238652 -51.39584625 119.42038666 -52.08674622 119.10771179 C-60.93191912 115.11470303 -69.84890451 111.28708931 -78.76342773 107.45214844 C-79.95653564 106.93813477 -81.14964355 106.42412109 -82.37890625 105.89453125 C-83.9558728 105.21741089 -83.9558728 105.21741089 -85.56469727 104.52661133 C-87.23355078 103.78923163 -88.88505514 103.00794395 -90.49584961 102.15112305 C-92.43298418 101.10293609 -92.43298418 101.10293609 -95.3125 101.3125 C-96.64723607 102.97804351 -97.98032742 104.64490539 -99.3125 106.3125 C-106.19565044 111.25498441 -112.83847406 114.38410204 -121.3984375 113.796875 C-131.22485604 112.16352929 -138.77290555 108.29966921 -144.84375 100.29296875 C-150.08652944 92.32211512 -151.20902069 84.75433811 -150.3125 75.3125 C-148.15561814 66.83995807 -142.32695602 60.03546903 -135.0625 55.375 C-128.1630936 51.30435023 -120.11781441 51.39509116 -112.3125 52.3125 C-106.83049827 53.89908365 -102.05230342 56.15263105 -97.3125 59.3125 C-84.73012767 52.31818127 -72.25390809 45.13940565 -59.87988281 37.78222656 C-57.3125 36.3125 -57.3125 36.3125 -55.06542969 35.25683594 C-52.90257657 34.29861177 -52.90257657 34.29861177 -50.3125 32.3125 C-49.43522119 28.93878766 -49.43522119 28.93878766 -49.6875 25.1875 C-49.62247675 18.12477745 -48.20245566 13.21411845 -44.3125 7.3125 C-43.260625 5.70375 -43.260625 5.70375 -42.1875 4.0625 C-30.70365446 -6.9220479 -13.34761855 -9.38424522 0 0 Z " fill="#793BAE" transform="translate(503.3125,363.6875)"/>
<path d="M0 0 C5.89733542 4.08763807 9.58847774 7.79804922 12.8203125 14.26171875 C13.8103125 13.24078125 13.8103125 13.24078125 14.8203125 12.19921875 C15.81551029 11.21517164 16.81612323 10.23658862 17.8203125 9.26171875 C18.40167969 8.69582031 18.98304688 8.12992187 19.58203125 7.546875 C28.64906525 -0.85806321 36.21117952 -3.46737357 48.47973633 -3.33447266 C56.87266724 -2.98539244 62.36336423 -0.74432322 68.6953125 4.76171875 C69.3965625 5.58671875 70.0978125 6.41171875 70.8203125 7.26171875 C71.5009375 7.94234375 72.1815625 8.62296875 72.8828125 9.32421875 C79.77015302 19.76631566 79.35862538 31.16638919 79.2109375 43.15234375 C79.20346121 44.95122646 79.19777485 46.75011741 79.19378662 48.54901123 C79.17863941 53.24431528 79.13945413 57.93911081 79.0949707 62.63421631 C79.05378015 67.4409701 79.03572521 72.24780744 79.015625 77.0546875 C78.97294715 86.45728866 78.90268909 95.85938152 78.8203125 105.26171875 C68.9203125 105.26171875 59.0203125 105.26171875 48.8203125 105.26171875 C48.80572998 103.04622314 48.79114746 100.83072754 48.77612305 98.5480957 C48.72576044 91.22378157 48.65916242 83.89967966 48.58459759 76.57557392 C48.53989166 72.13544343 48.50063607 67.69540475 48.47387695 63.25512695 C48.44784611 58.96908514 48.40744542 54.68339654 48.35712624 50.39757347 C48.34045601 48.76338282 48.32894268 47.12913107 48.32269859 45.49486732 C48.31305898 43.20364071 48.2850029 40.91331805 48.25268555 38.62231445 C48.24158249 37.31881546 48.23047943 36.01531647 48.21903992 34.6723175 C47.79524442 31.0472937 47.00250468 29.15244106 44.8203125 26.26171875 C40.38457498 23.43897669 34.89025896 23.52454553 29.8203125 24.26171875 C24.16962497 26.39172869 20.20523183 29.21803091 16.8203125 34.26171875 C16.20708877 37.62597258 16.20708877 37.62597258 16.27441406 41.34692383 C16.25890755 42.38677429 16.25890755 42.38677429 16.24308777 43.44763184 C16.21372664 45.72574353 16.21216212 48.00296421 16.2109375 50.28125 C16.1959512 51.86595853 16.1792231 53.45065147 16.16082764 55.0353241 C16.1171918 59.19620492 16.09716356 63.35687507 16.08209229 67.51794434 C16.06250748 71.76794879 16.02053906 76.01772618 15.98046875 80.26757812 C15.90520727 88.59892667 15.85696134 96.93011078 15.8203125 105.26171875 C6.2503125 105.26171875 -3.3196875 105.26171875 -13.1796875 105.26171875 C-13.19370605 101.99177002 -13.19370605 101.99177002 -13.20800781 98.65576172 C-13.24181533 91.44318257 -13.29738515 84.2308884 -13.36359024 77.01853752 C-13.40305475 72.64678345 -13.43524815 68.27523049 -13.45068359 63.90332031 C-13.46585712 59.68203666 -13.5003145 55.46130593 -13.54799652 51.24026871 C-13.56280324 49.63202859 -13.57072811 48.02370952 -13.57157135 46.41540146 C-13.57394503 44.15768638 -13.60105343 41.90149442 -13.63378906 39.64404297 C-13.64267151 38.36052948 -13.65155396 37.07701599 -13.66070557 35.75460815 C-14.269386 31.65802349 -15.62072686 29.4785556 -18.1796875 26.26171875 C-22.6175284 23.16513199 -28.01002101 23.4513386 -33.1796875 24.26171875 C-36.56493278 25.84149988 -39.35810828 27.82566223 -42.1796875 30.26171875 C-42.86911438 30.81305481 -43.55854126 31.36439087 -44.26885986 31.93243408 C-46.87408694 35.1081865 -46.69666287 37.15524576 -46.72558594 41.23339844 C-46.73592361 41.92648605 -46.74626129 42.61957367 -46.75691223 43.33366394 C-46.78633446 45.61721118 -46.78783918 47.89987188 -46.7890625 50.18359375 C-46.80404467 51.76973155 -46.8207719 53.35585374 -46.83917236 54.94195557 C-46.88285457 59.11107094 -46.90284671 63.27997587 -46.91790771 67.44927979 C-46.9374758 71.70589648 -46.97944609 75.96228581 -47.01953125 80.21875 C-47.09484296 88.56637461 -47.14305735 96.91383468 -47.1796875 105.26171875 C-56.7496875 105.26171875 -66.3196875 105.26171875 -76.1796875 105.26171875 C-76.1796875 70.28171875 -76.1796875 35.30171875 -76.1796875 -0.73828125 C-67.9296875 -0.73828125 -59.6796875 -0.73828125 -51.1796875 -0.73828125 C-50.5196875 3.55171875 -49.8596875 7.84171875 -49.1796875 12.26171875 C-47.04005401 12.49079348 -47.04005401 12.49079348 -45.515625 10.6875 C-44.86851562 9.99011719 -44.22140625 9.29273438 -43.5546875 8.57421875 C-32.78509267 -2.44900784 -14.35483986 -8.02182228 0 0 Z " fill="#2B3042" transform="translate(903.1796875,438.73828125)"/>
<path d="M0 0 C1.34765625 1.81347656 1.34765625 1.81347656 2 4 C1.21728516 6.38183594 1.21728516 6.38183594 -0.2109375 8.984375 C-0.96503906 10.38623047 -0.96503906 10.38623047 -1.734375 11.81640625 C-2.27578125 12.78449219 -2.8171875 13.75257813 -3.375 14.75 C-3.90867187 15.73355469 -4.44234375 16.71710938 -4.9921875 17.73046875 C-6.31407514 20.16179779 -7.65027958 22.58404475 -9 25 C-12.61534029 25 -14.15427017 23.97655596 -17.3125 22.25 C-30.41572479 15.60389319 -44.72024685 12.02321309 -59.125 16.625 C-64.51120714 18.86925297 -67.37801585 21.7560317 -70 27 C-70.44315106 31.8746617 -69.7636655 34.9408663 -67 39 C-61.11308321 43.80010139 -54.16465797 45.80451437 -47 47.9375 C-44.76995843 48.62738655 -42.54078888 49.32009821 -40.3125 50.015625 C-38.69408203 50.51932617 -38.69408203 50.51932617 -37.04296875 51.03320312 C-22.38423113 55.69050423 -5.96014376 60.99437222 2.70703125 74.69921875 C7.96718558 85.08309688 9.3435004 97.75505764 5.9765625 109.08203125 C0.66358267 122.39383431 -8.25497813 130.69154821 -21.171875 136.40234375 C-44.0676191 145.67350773 -70.8838522 144.73663429 -93.61010742 135.41040039 C-98.91750081 133.15241181 -103.59958565 130.82936821 -108 127 C-107.33753194 123.71732243 -106.12370941 121.15285826 -104.49609375 118.234375 C-104.00302734 117.34492187 -103.50996094 116.45546875 -103.00195312 115.5390625 C-102.48568359 114.61867188 -101.96941406 113.69828125 -101.4375 112.75 C-100.91736328 111.81414062 -100.39722656 110.87828125 -99.86132812 109.9140625 C-98.57833944 107.60703698 -97.29110654 105.30248919 -96 103 C-92.16408979 103.85912432 -89.1558668 105.44430243 -85.6875 107.3125 C-70.73568988 114.98630535 -54.88674555 117.61846579 -38.53125 112.9140625 C-34.09509242 111.31211671 -31.23522719 109.44109839 -28.125 105.8125 C-26.02614164 100.56535409 -26.18118174 95.93538862 -28.375 90.75 C-36.87972068 81.84029262 -51.54921822 79.18203139 -63.125 76.0625 C-78.16560582 71.83073633 -92.02637897 65.01750641 -100.3125 51.375 C-104.87058079 42.25883842 -104.35891513 29.15820563 -102.19921875 19.37109375 C-97.39590646 6.71081703 -87.341979 -1.59158091 -75.359375 -7.24609375 C-51.14409726 -17.38531281 -22.2156828 -13.25691095 0 0 Z " fill="#2C3243" transform="translate(749,404)"/>
<path d="M0 0 C3.01844291 1.33980234 4.97168756 2.77285992 7.1875 5.2109375 C7.79408447 5.86908447 8.40066895 6.52723145 9.02563477 7.20532227 C9.67717529 7.92131592 10.32871582 8.63730957 11 9.375 C18.16757339 17.13433739 25.55911216 24.63371728 33.08398438 32.04638672 C37.3397912 36.25839892 41.40452693 40.53933188 45.30444336 45.08178711 C48.21515549 48.37472667 51.36142262 51.42613555 54.5 54.5 C58.26886175 58.19115326 61.95356303 61.88942969 65.390625 65.89453125 C70.16340673 71.43187177 75.44513381 76.45703942 80.6796875 81.55273438 C81.45054687 82.31263672 82.22140625 83.07253906 83.015625 83.85546875 C83.70946289 84.53246826 84.40330078 85.20946777 85.11816406 85.90698242 C88.3089985 89.45589571 90.42683609 92.59082599 90.375 97.4375 C90.38273438 98.15808594 90.39046875 98.87867188 90.3984375 99.62109375 C88.35520921 111.82036856 74.2014329 122.47544664 64.79296875 129.33984375 C59.46367139 132.96046386 54.71185967 135.95555453 48.09765625 135.57421875 C42.37548904 134.00781543 38.64253231 131.01096576 34.5625 126.8125 C33.67691406 125.91144531 32.79132813 125.01039063 31.87890625 124.08203125 C29.73246356 121.82463029 27.68619391 119.49580041 25.65234375 117.13671875 C21.96105838 112.88738397 18.01668739 108.93973936 14 105 C10.09382094 101.16865196 6.24586142 97.34739394 2.6875 93.1875 C-1.91645589 87.84231765 -6.98020265 82.94914337 -12 78 C-17.66482326 72.41490951 -23.26184591 66.8336017 -28.43554688 60.78271484 C-31.37029691 57.43852871 -34.60286668 54.39168907 -37.8125 51.31445312 C-40.76389875 48.4277113 -43.05386127 45.6456777 -45 42 C-43.02 39.525 -43.02 39.525 -41 37 C-45.95 32.545 -45.95 32.545 -51 28 C-52.97033203 28.93972656 -52.97033203 28.93972656 -54.98046875 29.8984375 C-56.71610761 30.72403869 -58.45178682 31.54955507 -60.1875 32.375 C-61.48397461 32.99375 -61.48397461 32.99375 -62.80664062 33.625 C-63.64775391 34.02460937 -64.48886719 34.42421875 -65.35546875 34.8359375 C-66.51018677 35.38580322 -66.51018677 35.38580322 -67.68823242 35.94677734 C-71.99250578 37.90776956 -75.208785 39.27378371 -80 39 C-76.6228641 36.74857607 -73.09297063 35.26337379 -69.375 33.6875 C-59.69532923 29.49701641 -51.8005176 25.18737648 -44 18 C-39.28205128 14 -39.28205128 14 -37 14 C-37 13.34 -37 12.68 -37 12 C-33.24100622 8.48352195 -29.28776943 5.33048559 -24 5 C-23.61328125 5.49371094 -23.2265625 5.98742187 -22.828125 6.49609375 C-22.04695312 7.45708984 -22.04695312 7.45708984 -21.25 8.4375 C-20.73953125 9.07558594 -20.2290625 9.71367188 -19.703125 10.37109375 C-17.69173717 12.29482936 -16.80630643 13.02598432 -14 13 C-11.43122567 11.00316358 -11.43122567 11.00316358 -9 8.25 C-6.13945844 5.19759285 -3.44242465 2.39057268 0 0 Z " fill="#232B46" transform="translate(574,544)"/>
<path d="M0 0 C11.17743604 8.13087856 15.89123292 19.06493169 19.1875 32.25 C19.1875 40.17 19.1875 48.09 19.1875 56.25 C-3.2525 56.25 -25.6925 56.25 -48.8125 56.25 C-46.79042861 66.36035697 -45.07878523 72.50504199 -36.75390625 78.2421875 C-27.28347909 83.15842534 -16.66201777 81.99441337 -6.6796875 79.25390625 C-2.85877795 77.91606735 0.61824657 76.14671624 4.12890625 74.140625 C6.1875 73.25 6.1875 73.25 9.1875 74.25 C10.60345018 76.34327067 11.81388843 78.34666074 13 80.5625 C13.64582031 81.71363281 14.29164062 82.86476563 14.95703125 84.05078125 C16.1875 87.25 16.1875 87.25 15.68359375 89.4765625 C12.63354484 93.09202517 8.27497496 94.99264254 4.1875 97.25 C3.259375 97.806875 2.33125 98.36375 1.375 98.9375 C-13.23410122 104.95301227 -32.13644427 106.05645487 -47.05859375 100.51171875 C-60.38765602 94.40492852 -70.47095257 85.90652551 -76.1015625 72.0859375 C-82.029313 54.89972561 -81.85057762 36.20692358 -73.875 19.75 C-66.57885656 6.98174899 -56.2331972 -1.59752017 -42.09375 -5.875 C-27.91492889 -9.22007445 -12.41896388 -7.58821499 0 0 Z " fill="#2C3244" transform="translate(1186.8125,442.75)"/>
<path d="M0 0 C9.9 0 19.8 0 30 0 C30.02505615 3.77091064 30.0501123 7.54182129 30.07592773 11.42700195 C30.1592777 23.86419844 30.2479298 36.30135235 30.33933926 48.73849201 C30.39464887 56.28161887 30.44812716 63.82475045 30.49731445 71.36791992 C30.54018399 77.94151427 30.58646899 84.51507411 30.63687855 91.08861512 C30.66345716 94.57017217 30.68830968 98.05172248 30.70907402 101.53331947 C30.7323015 105.41719755 30.76315333 109.30099441 30.79467773 113.18481445 C30.80331093 114.92189919 30.80331093 114.92189919 30.81211853 116.69407654 C30.82190735 117.74996979 30.83169617 118.80586304 30.84178162 119.89375305 C30.84823417 120.81278066 30.85468672 121.73180826 30.8613348 122.67868519 C30.9088653 125.15842208 30.9088653 125.15842208 32 128 C34.97949852 129.63379316 34.97949852 129.63379316 43 130 C43 136.93 43 143.86 43 151 C32.75648429 153.92671877 22.38263919 154.63103001 12.375 150.38671875 C6.00074213 146.664907 2.8636533 141.58540371 0.64023399 134.72403145 C-0.59019692 129.48886347 -0.38859523 124.21218282 -0.34057617 118.86108398 C-0.34101425 117.57229843 -0.34145233 116.28351288 -0.34190369 114.95567322 C-0.34275886 111.44792543 -0.32521144 107.94049002 -0.30418181 104.43281436 C-0.28533459 100.75731442 -0.28365827 97.08180607 -0.28010559 93.40626526 C-0.27080862 86.45788369 -0.24622694 79.50964496 -0.21605712 72.56132609 C-0.18243966 64.64593148 -0.1660087 56.73052979 -0.15097082 48.81508148 C-0.11967502 32.54329103 -0.06469266 16.27169716 0 0 Z " fill="#2B3143" transform="translate(1058,393)"/>
<path d="M0 0 C7.80950805 4.57872527 12.68612922 10.3899995 15.71875 18.92578125 C17.90724086 27.51039719 16.15939967 35.12753654 12.15625 42.8515625 C7.14478366 51.17616491 0.1068117 55.62938453 -9.2265625 58.02734375 C-17.12391589 59.58366258 -23.45671558 58.05727458 -30.625 54.5 C-32.52189645 52.95669978 -34.18113849 51.40745825 -35.796875 49.57421875 C-38.70530335 47.86520636 -41.49009625 48.74741268 -44.625 49.5 C-47.87183046 50.63421842 -50.99791365 51.99949053 -54.13671875 53.40234375 C-55.47268852 53.99723351 -55.47268852 53.99723351 -56.83564758 54.60414124 C-58.70967486 55.44530076 -60.58124004 56.29196483 -62.45043945 57.14379883 C-65.30121056 58.43239697 -68.16978142 59.67382256 -71.04101562 60.91601562 C-72.86587461 61.74194455 -74.68948837 62.57063145 -76.51171875 63.40234375 C-77.36593918 63.76319565 -78.22015961 64.12404755 -79.1002655 64.49583435 C-83.94263987 66.78007929 -86.07419694 68.59916461 -88.03833008 73.66235352 C-88.29834305 74.51547623 -88.55835602 75.36859894 -88.82624817 76.24757385 C-90.21027082 80.15042412 -93.04488102 81.57091716 -96.4453125 83.5703125 C-100.65161272 85.36439754 -105.1503856 85.0260432 -109.625 84.5 C-114.62730198 82.04432448 -118.12351535 78.5029693 -120.625 73.5 C-120.77351844 71.56640414 -120.84630833 69.62657903 -120.875 67.6875 C-120.90078125 66.64980469 -120.9265625 65.61210938 -120.953125 64.54296875 C-120.50752066 60.41051896 -118.99618675 57.88165382 -116.08984375 54.953125 C-111.78979879 51.56587731 -109.75075047 50.34929466 -104.3125 50.3125 C-102.89517578 50.29123047 -102.89517578 50.29123047 -101.44921875 50.26953125 C-98.625 50.5 -98.625 50.5 -96.14453125 51.57421875 C-91.69768204 53.2081773 -88.19291586 51.73612138 -83.93383789 49.96533203 C-82.56817084 49.32040785 -81.20626216 48.66748185 -79.84765625 48.0078125 C-79.11808212 47.66120575 -78.388508 47.314599 -77.63682556 46.95748901 C-75.31694836 45.8536951 -73.00213108 44.73974678 -70.6875 43.625 C-68.37545688 42.5195657 -66.0624123 41.41626106 -63.74888611 40.31393433 C-62.31417319 39.62946435 -60.88048076 38.94284957 -59.44801331 38.25369263 C-58.78720261 37.93681488 -58.12639191 37.61993713 -57.44555664 37.29345703 C-56.81151917 36.98785858 -56.17748169 36.68226013 -55.52423096 36.36740112 C-53.61263802 35.49435414 -51.67485975 34.75430588 -49.7121582 34.00488281 C-46.59635881 32.84172003 -46.59635881 32.84172003 -45.57080078 30.67822266 C-45.48813965 30.0135498 -45.40547852 29.34887695 -45.3203125 28.6640625 C-45.21203125 27.92929687 -45.10375 27.19453125 -44.9921875 26.4375 C-44.87230469 25.2928125 -44.87230469 25.2928125 -44.75 24.125 C-44.646875 23.36960937 -44.54375 22.61421875 -44.4375 21.8359375 C-44.14974058 19.72570173 -43.88275683 17.6140838 -43.625 15.5 C-42.96906257 10.17879974 -40.91600442 8.5268076 -36.890625 5.2109375 C-25.97456586 -3.03256923 -12.89847655 -6.03236736 0 0 Z " fill="#F6A41A" transform="translate(524.625,468.5)"/>
<path d="M0 0 C5.84667643 4.84028131 10.49774513 11.01331711 12.6875 18.3125 C13.62619681 29.35336245 11.24655279 37.38812508 4.6875 46.3125 C-1.33574914 52.27352549 -9.69617378 56.20724087 -18.23046875 56.3671875 C-26.55985223 55.90941971 -33.029725 54.40751242 -39.18359375 48.5234375 C-41.32292451 47.00056433 -41.32292451 47.00056433 -44.09765625 47.85546875 C-47.81091734 49.53839267 -51.27601488 51.50520951 -54.75 53.625 C-56.23989579 54.51597986 -57.73084324 55.40520272 -59.22265625 56.29296875 C-60.02848145 56.7729834 -60.83430664 57.25299805 -61.66455078 57.74755859 C-66.64535795 60.69122206 -71.66266346 63.56982409 -76.6875 66.4375 C-77.69224365 67.01798096 -78.6969873 67.59846191 -79.73217773 68.1965332 C-80.67391846 68.73238037 -81.61565918 69.26822754 -82.5859375 69.8203125 C-83.42560059 70.30129395 -84.26526367 70.78227539 -85.13037109 71.27783203 C-87.3125 72.3125 -87.3125 72.3125 -90.3125 72.3125 C-91.01430531 70.9028653 -91.69843958 69.48442359 -92.375 68.0625 C-92.75785156 67.27359375 -93.14070313 66.4846875 -93.53515625 65.671875 C-94.45075668 62.89286665 -94.53843553 61.95928968 -93.3125 59.3125 C-89.26903134 54.35520742 -84.10449096 51.68070051 -78.5625 48.625 C-77.64178711 48.0988208 -76.72107422 47.5726416 -75.77246094 47.03051758 C-71.30484962 44.48314809 -66.83134606 42.04720639 -62.1875 39.8359375 C-55.76384399 36.77838155 -55.76384399 36.77838155 -50.3125 32.3125 C-49.09185882 28.28874354 -49.0472065 25.12824699 -49.25 20.94140625 C-49.3445888 15.44934431 -47.27284136 11.80376075 -44.3125 7.3125 C-43.260625 5.70375 -43.260625 5.70375 -42.1875 4.0625 C-30.70365446 -6.9220479 -13.34761855 -9.38424522 0 0 Z " fill="#ED7129" transform="translate(503.3125,363.6875)"/>
<path d="M0 0 C1.03374756 1.03483521 1.03374756 1.03483521 2.08837891 2.09057617 C4.65708314 4.65933675 7.23226528 7.22152676 9.80844116 9.78279114 C12.33510504 12.29594216 14.8590025 14.81186425 17.3828125 17.32788086 C18.7064551 18.64649492 20.03099387 19.96421003 21.35644531 21.28100586 C34.24817774 34.09100304 34.24817774 34.09100304 39.48681641 40.26635742 C42.31891365 43.51106903 45.42466736 46.48807628 48.5 49.5 C52.26308546 53.18549607 55.94453804 56.87828201 59.37890625 60.875 C63.49800394 65.65217838 67.95589753 70.06534421 72.4375 74.5 C73.67790039 75.73363281 73.67790039 75.73363281 74.94335938 76.9921875 C76.95994959 78.99712113 78.97885236 80.99966253 81 83 C79.406889 88.61502562 77.86939188 92.88806477 73.75 97.1875 C72.96238281 98.01378906 72.17476562 98.84007812 71.36328125 99.69140625 C68.35532615 102.62975578 65.26974568 105.35637583 62 108 C58.0316279 106.4367019 55.58425131 103.6788236 52.8125 100.5625 C52.32982666 100.02826416 51.84715332 99.49402832 51.34985352 98.94360352 C47.50262453 94.65039244 43.86045699 90.20541626 40.24609375 85.71484375 C37.9116941 82.89326505 35.48009402 80.19409288 33 77.5 C28.94337913 73.08709656 25.11326307 68.54499238 21.34765625 63.8828125 C18.7718456 60.71983703 16.1428698 57.60689208 13.5 54.5 C9.35043767 49.61511769 5.25541312 44.69066245 1.21484375 39.71484375 C-0.36366575 37.77998642 -1.95640149 35.85669868 -3.55859375 33.94140625 C-4.38488281 32.95011719 -5.21117187 31.95882812 -6.0625 30.9375 C-6.81660156 30.03902344 -7.57070313 29.14054688 -8.34765625 28.21484375 C-10 26 -10 26 -10 24 C-10.66 24 -11.32 24 -12 24 C-12.69433869 21.08190091 -13.19769626 18.94459835 -13 16 C-11.03050441 13.61993558 -9.52426165 12.12402306 -7.125 10.3125 C-2.67373312 6.97530313 -2.67373312 6.97530313 -0.1171875 2.16796875 C-0.07851563 1.45253906 -0.03984375 0.73710938 0 0 Z " fill="#324F95" transform="translate(580,549)"/>
<path d="M0 0 C9.9 0 19.8 0 30 0 C30 34.98 30 69.96 30 106 C20.1 106 10.2 106 0 106 C0 71.02 0 36.04 0 0 Z " fill="#2E3445" transform="translate(1005,438)"/>
<path d="M0 0 C9.9 0 19.8 0 30 0 C30 34.98 30 69.96 30 106 C20.1 106 10.2 106 0 106 C0 71.02 0 36.04 0 0 Z " fill="#2E3445" transform="translate(773,438)"/>
<path d="M0 0 C0.4021875 1.299375 0.4021875 1.299375 0.8125 2.625 C1.92050789 6.04002513 1.92050789 6.04002513 3.6875 9.1875 C5 12 5 12 4 15 C1.62980242 16.33997288 -0.67599169 17.49758606 -3.1484375 18.6171875 C-3.87559967 18.95622101 -4.60276184 19.29525452 -5.35195923 19.64456177 C-7.68858409 20.73114991 -10.03157967 21.80315833 -12.375 22.875 C-13.9158007 23.58890324 -15.45617062 24.30373701 -16.99609375 25.01953125 C-18.50509956 25.71898472 -20.01421287 26.41820631 -21.5234375 27.1171875 C-22.25998566 27.45873367 -22.99653381 27.80027985 -23.75540161 28.1521759 C-26.97615119 29.63808296 -30.19638825 31.08167884 -33.47216797 32.4440918 C-34.45588379 32.85570557 -35.43959961 33.26731934 -36.453125 33.69140625 C-37.2874707 34.02342041 -38.12181641 34.35543457 -38.98144531 34.69750977 C-42.32701501 36.85626815 -43.05539408 40.01835057 -44.1796875 43.69140625 C-45.5782881 47.62746795 -48.38691067 49.05153116 -51.8203125 51.0703125 C-56.02661272 52.86439754 -60.5253856 52.5260432 -65 52 C-70.00230198 49.54432448 -73.49851535 46.0029693 -76 41 C-76.14851844 39.06640414 -76.22130833 37.12657903 -76.25 35.1875 C-76.27578125 34.14980469 -76.3015625 33.11210938 -76.328125 32.04296875 C-75.88252066 27.91051896 -74.37118675 25.38165382 -71.46484375 22.453125 C-67.16479879 19.06587731 -65.12575047 17.84929466 -59.6875 17.8125 C-58.74261719 17.79832031 -57.79773438 17.78414062 -56.82421875 17.76953125 C-54 18 -54 18 -51.51953125 19.07421875 C-47.07268204 20.7081773 -43.56791586 19.23612138 -39.30883789 17.46533203 C-37.94317084 16.82040785 -36.58126216 16.16748185 -35.22265625 15.5078125 C-34.12829506 14.98790237 -34.12829506 14.98790237 -33.01182556 14.45748901 C-30.69194836 13.3536951 -28.37713108 12.23974678 -26.0625 11.125 C-23.75045688 10.0195657 -21.4374123 8.91626106 -19.12388611 7.81393433 C-17.68917319 7.12946435 -16.25548076 6.44284957 -14.82301331 5.75369263 C-2.82437443 0 -2.82437443 0 0 0 Z " fill="#475DB4" transform="translate(480,501)"/>
<path d="M0 0 C4.31633181 3.18586395 7.91120739 6.79612218 9.625 11.9375 C10.26566175 17.38312487 9.29083644 20.68405574 6.21875 25.0703125 C2.5557829 29.36172983 -0.88687864 31.53007013 -6.5 32.44921875 C-11.9756444 32.73440856 -16.36762047 32.55709138 -21 29.4375 C-25.35039908 25.51018413 -27.07043199 21.48664968 -27.56640625 15.70703125 C-27.39713897 9.92207292 -25.13456119 6.72488132 -21.26171875 2.56640625 C-15.29835794 -2.58208538 -7.2623546 -2.28629682 0 0 Z " fill="#2B3142" transform="translate(797.375,391.0625)"/>
<path d="M0 0 C4.3822515 2.53105741 7.50893732 5.39999179 9.58984375 10.08203125 C10.61104249 15.92257141 10.42944477 20.64041611 6.96484375 25.58203125 C3.35909913 29.65518721 0.35446653 31.69838546 -5.140625 32.4609375 C-11.84445808 32.86027863 -16.29093656 31.92978079 -21.62890625 27.78125 C-25.39104338 24.19236918 -26.55370739 20.77556016 -26.91015625 15.70703125 C-26.70891654 10.51854659 -24.81926785 6.93467523 -21.41015625 3.08203125 C-15.29569637 -1.90936457 -7.45412133 -2.83908997 0 0 Z " fill="#2C3243" transform="translate(1028.41015625,390.91796875)"/>
<path d="M0 0 C5.43164485 2.33819378 8.17288301 6.09881979 10.61328125 11.3828125 C11.94783589 15.5917925 11.61328125 18.72479808 11.61328125 23.3828125 C-2.24671875 23.3828125 -16.10671875 23.3828125 -30.38671875 23.3828125 C-29.34897362 15.08085144 -27.77058211 9.00816413 -21.32421875 3.4453125 C-14.62415883 -1.25898489 -8.04187719 -2.0795689 0 0 Z " fill="#FAFAFA" transform="translate(1167.38671875,457.6171875)"/>
<path d="M0 0 C2.523338 0.93264087 3.64433177 2.05388445 5.39453125 4.08203125 C5.92691406 4.67628906 6.45929687 5.27054688 7.0078125 5.8828125 C8.08203125 7.76953125 8.08203125 7.76953125 8.00390625 9.73046875 C6.78381644 12.42914197 5.14874091 14.02586481 3.01953125 16.08203125 C2.20871094 16.86707031 1.39789062 17.65210938 0.5625 18.4609375 C-2.23495254 21.0645508 -5.07883615 23.59795751 -7.99609375 26.06640625 C-10.39989769 28.19660649 -12.64684277 30.49840527 -14.91796875 32.76953125 C-18.54796875 29.46953125 -22.17796875 26.16953125 -25.91796875 22.76953125 C-27.88830078 23.70925781 -27.88830078 23.70925781 -29.8984375 24.66796875 C-31.63407636 25.49356994 -33.36975557 26.31908632 -35.10546875 27.14453125 C-35.96978516 27.55703125 -36.83410156 27.96953125 -37.72460938 28.39453125 C-38.56572266 28.79414062 -39.40683594 29.19375 -40.2734375 29.60546875 C-41.42815552 30.15533447 -41.42815552 30.15533447 -42.60620117 30.71630859 C-46.91047453 32.67730081 -50.12675375 34.04331496 -54.91796875 33.76953125 C-51.54083285 31.51810732 -48.01093938 30.03290504 -44.29296875 28.45703125 C-34.61329798 24.26654766 -26.71848635 19.95690773 -18.91796875 12.76953125 C-14.20002003 8.76953125 -14.20002003 8.76953125 -11.91796875 8.76953125 C-11.91796875 8.10953125 -11.91796875 7.44953125 -11.91796875 6.76953125 C-10.23828125 5.296875 -10.23828125 5.296875 -8.04296875 3.70703125 C-7.32367187 3.17980469 -6.604375 2.65257812 -5.86328125 2.109375 C-2.38465395 -0.28654701 -2.38465395 -0.28654701 0 0 Z " fill="#1B203A" transform="translate(548.91796875,549.23046875)"/>
<path d="M0 0 C9.9 0 19.8 0 30 0 C30 40.59 30 81.18 30 123 C29.34 123 28.68 123 28 123 C28 83.07 28 43.14 28 2 C19.42 2 10.84 2 2 2 C2 45.23 2 88.46 2 133 C1.34 132.67 0.68 132.34 0 132 C0 88.44 0 44.88 0 0 Z " fill="#3E4454" transform="translate(1058,393)"/>
<path d="M0 0 C0.66 0.33 1.32 0.66 2 1 C1.62178114 5.9618713 -0.89018799 8.34128274 -4.375 11.5625 C-7.51802477 14.53773309 -10.52564375 17.42312446 -13 21 C-13.37109375 18.84375 -13.37109375 18.84375 -13 16 C-11.0593542 13.96276097 -9.22968664 12.25638055 -7.0625 10.5 C-2.65661606 7.03665613 -2.65661606 7.03665613 -0.12109375 2.15625 C-0.08113281 1.4446875 -0.04117188 0.733125 0 0 Z " fill="#40517D" transform="translate(580,549)"/>
<path d="M0 0 C1.32 0.66 2.64 1.32 4 2 C3.40703125 2.10183594 2.8140625 2.20367188 2.203125 2.30859375 C-0.36184111 3.11355652 -1.42743483 4.11566902 -3.25 6.0625 C-3.77078125 6.61035156 -4.2915625 7.15820312 -4.828125 7.72265625 C-5.21484375 8.14417969 -5.6015625 8.56570313 -6 9 C-6.99 8.67 -7.98 8.34 -9 8 C-6.03 5.36 -3.06 2.72 0 0 Z " fill="#414C6C" transform="translate(574,544)"/>
<path d="M0 0 C0.33 0 0.66 0 1 0 C1 2.64 1 5.28 1 8 C-0.6490302 7.38348417 -2.29415841 6.75652258 -3.9375 6.125 C-4.85402344 5.77695312 -5.77054687 5.42890625 -6.71484375 5.0703125 C-9 4 -9 4 -10 2 C-5.545 2.99 -5.545 2.99 -1 4 C-0.67 2.68 -0.34 1.36 0 0 Z " fill="#A86173" transform="translate(479,487)"/>
<path d="M0 0 C3.37462715 0.54723683 5.08235 1.0549 8 3 C7.34 5.31 6.68 7.62 6 10 C5.67 10 5.34 10 5 10 C4.87625 8.3603125 4.87625 8.3603125 4.75 6.6875 C4.36310791 2.96723336 4.36310791 2.96723336 1.9375 1.0625 C1.298125 0.711875 0.65875 0.36125 0 0 Z " fill="#AD5062" transform="translate(475,477)"/>
<path d="M0 0 C0.66 0.33 1.32 0.66 2 1 C1.34 1.66 0.68 2.32 0 3 C-0.16687448 5.58354218 -0.16687448 5.58354218 0 8 C-0.99 7.67 -1.98 7.34 -3 7 C-3.33 5.35 -3.66 3.7 -4 2 C-2.125 0.9375 -2.125 0.9375 0 0 Z " fill="#AF4D79" transform="translate(410,421)"/>
<path d="M0 0 C0.66 0.33 1.32 0.66 2 1 C-0.97 3.64 -3.94 6.28 -7 9 C-7.66 8.67 -8.32 8.34 -9 8 C-6.03 5.36 -3.06 2.72 0 0 Z " fill="#7847C2" transform="translate(368,419)"/>
<path d="M0 0 C0.66 0.33 1.32 0.66 2 1 C1.38125 1.5775 0.7625 2.155 0.125 2.75 C-1.81347053 4.80249821 -2.90014249 6.43366582 -4 9 C-4.66 9 -5.32 9 -6 9 C-5.52797514 4.75177626 -3.03344482 2.80010291 0 0 Z " fill="#3A74CE" transform="translate(411,521)"/>
<path d="M0 0 C0 3.58912412 -0.66436554 4.10857029 -3 6.6875 C-3.556875 7.31011719 -4.11375 7.93273437 -4.6875 8.57421875 C-5.120625 9.04472656 -5.55375 9.51523437 -6 10 C-6.66 9.01 -7.32 8.02 -8 7 C-5.36 4.69 -2.72 2.38 0 0 Z " fill="#F1A538" transform="translate(490,472)"/>
<path d="M0 0 C0 3 0 3 -1.53125 4.60546875 C-2.1809375 5.12753906 -2.830625 5.64960938 -3.5 6.1875 C-4.1496875 6.71730469 -4.799375 7.24710937 -5.46875 7.79296875 C-5.9740625 8.19128906 -6.479375 8.58960938 -7 9 C-5.64978174 4.58110387 -3.73884332 2.65654657 0 0 Z " fill="#ED7536" transform="translate(466,364)"/>
<path d="M0 0 C0.99 0.66 1.98 1.32 3 2 C1.63016497 5.16115776 1.0109362 5.9927092 -2 8 C-1.34 5.36 -0.68 2.72 0 0 Z " fill="#102D7A" transform="translate(660,633)"/>
</svg>
